<svg width="216" height="33" viewBox="0 0 216 33" fill="none" xmlns="http://www.w3.org/2000/svg">
<g filter="url(#filter0_d)">
<mask id="mask0" style="mask-type:alpha" maskUnits="userSpaceOnUse" x="4" y="4" width="15" height="21">
<path fill-rule="evenodd" clip-rule="evenodd" d="M4 4.67572H18.2885V24.4555H4V4.67572Z" fill="white"/>
</mask>
<g mask="url(#mask0)">
<path fill-rule="evenodd" clip-rule="evenodd" d="M11.6035 7.66772C13.0365 7.66772 14.2815 8.41672 14.9555 9.09172V14.0997C14.2815 14.7517 13.0365 15.4737 11.6035 15.4737C9.12051 15.4737 7.38551 13.8787 7.38551 11.5967C7.38551 9.28372 9.12051 7.66772 11.6035 7.66772ZM14.9555 5.94272C14.1115 5.29172 12.8025 4.67572 10.8685 4.67572C6.88851 4.67572 3.99951 7.58672 3.99951 11.5967C3.99951 15.5127 6.95251 18.4657 10.8685 18.4657C12.4085 18.4657 13.8355 18.0197 14.9555 17.1977V18.0337C14.9555 21.1057 12.4275 21.4377 11.3415 21.4377C9.10251 21.4377 7.44851 20.3857 6.90451 20.0397L6.55251 19.8157L5.79051 22.8947L6.20651 23.1107C7.10051 23.5807 8.76351 24.4557 11.3415 24.4557C15.6255 24.4557 18.2885 21.7837 18.2885 17.4817V4.91272H14.9555V5.94272Z" fill="white"/>
</g>
<path fill-rule="evenodd" clip-rule="evenodd" d="M31.9868 4.67599C30.4658 4.67599 29.3508 5.26799 28.5288 6.52799C28.1088 5.29899 27.1538 4.67599 25.6818 4.67599C24.4598 4.67599 23.1828 5.06399 22.7998 5.41099L22.6898 5.51099L22.9278 8.27199L23.3428 8.01699C23.6448 7.832 24.1698 7.61499 24.6568 7.61499C25.1648 7.61499 25.4598 7.81999 25.4598 8.865V19.254H28.7928L28.7868 11.183C29.2428 8.90599 30.1598 7.79899 31.5918 7.79899C32.6968 7.79899 33.5048 8.15299 33.7308 8.50199L34.1288 9.11699L34.7998 5.86699L34.7388 5.76599C34.4068 5.22299 33.4278 4.67599 31.9868 4.67599Z" fill="white"/>
<path fill-rule="evenodd" clip-rule="evenodd" d="M41.4214 10.5607C41.7264 8.95371 43.0164 7.43171 45.3564 7.43171C47.7494 7.43171 48.6024 8.82371 48.6024 10.1257C48.6024 10.2477 48.5944 10.3997 48.5804 10.5607H41.4214ZM51.5274 13.0807C51.6944 12.5507 51.8304 11.4257 51.8304 10.5727C51.8304 7.65871 50.1434 4.54471 45.4084 4.54471C41.0634 4.54471 37.9104 7.73171 37.9104 12.1227C37.9104 16.8177 40.8014 19.6217 45.6454 19.6217C47.9144 19.6217 50.0064 18.9357 51.5354 17.6887L51.7294 17.5307L50.3654 15.0377L50.0884 15.2447C49.5014 15.6857 47.9014 16.7087 45.7244 16.7087C43.2334 16.7087 41.7324 15.5287 41.3654 13.2897H51.4614L51.5274 13.0807Z" fill="white"/>
<path fill-rule="evenodd" clip-rule="evenodd" d="M59.5713 10.5607C59.8763 8.95371 61.1663 7.43171 63.5063 7.43171C65.8993 7.43171 66.7523 8.82371 66.7523 10.1257C66.7523 10.2477 66.7443 10.3997 66.7303 10.5607H59.5713ZM69.6773 13.0807C69.8443 12.5507 69.9803 11.4257 69.9803 10.5727C69.9803 7.65871 68.2933 4.54471 63.5583 4.54471C59.2133 4.54471 56.0603 7.73171 56.0603 12.1227C56.0603 16.8177 58.9513 19.6217 63.7953 19.6217C66.0643 19.6217 68.1563 18.9357 69.6853 17.6887L69.8793 17.5307L68.5153 15.0377L68.2383 15.2447C67.6513 15.6857 66.0513 16.7087 63.8743 16.7087C61.3833 16.7087 59.8823 15.5287 59.5153 13.2897H69.6113L69.6773 13.0807Z" fill="white"/>
<path fill-rule="evenodd" clip-rule="evenodd" d="M90.5103 16.1486C90.0513 16.4286 89.6063 16.5776 89.2223 16.5776C88.8043 16.5776 88.4193 16.4256 88.4193 15.3276V11.0456C88.4193 7.0576 86.3713 4.6756 82.9433 4.6756C81.1493 4.6756 79.6073 5.3046 78.5143 6.4636V4.9126H75.1813V19.2536H78.5143V10.5146C78.9603 9.1556 80.2023 7.7986 81.9973 7.7986C83.9603 7.7986 85.0863 9.1356 85.0863 11.4656V15.9316C85.0863 18.3106 86.1333 19.5166 88.1973 19.5166C89.3513 19.5166 90.3983 19.1716 90.9943 18.8496L91.1663 18.7556L90.9253 15.8956L90.5103 16.1486Z" fill="white"/>
<path fill-rule="evenodd" clip-rule="evenodd" d="M113.078 15.5309C112.418 16.0099 111.238 16.5249 110.207 16.5249C108.924 16.5249 108.301 15.7639 108.301 14.1979V7.66791H113.661V4.91291H108.301V1.41891H105.309L104.994 4.91291H102.393V7.66791H104.968V14.7229C104.968 17.7689 106.581 19.5159 109.393 19.5159C111.633 19.5159 113.301 18.7779 114.306 18.1579L114.524 18.0239L113.385 15.3089L113.078 15.5309Z" fill="white"/>
<path fill-rule="evenodd" clip-rule="evenodd" d="M134.282 16.1413C133.72 16.4513 133.344 16.5773 132.982 16.5773C132.565 16.5773 132.179 16.4263 132.179 15.3283V11.0453C132.179 7.05731 130.132 4.67631 126.703 4.67631C124.89 4.67631 123.349 5.29331 122.275 6.43231V0.000305176H118.942V19.2533H122.275V10.5153C122.72 9.15531 123.963 7.7993 125.758 7.7993C127.72 7.7993 128.846 9.13531 128.846 11.4653V15.9323C128.846 18.3103 129.893 19.5163 131.957 19.5163C133.149 19.5163 134.185 19.1703 134.759 18.8473L134.927 18.7523L134.688 15.9183L134.282 16.1413Z" fill="white"/>
<path fill-rule="evenodd" clip-rule="evenodd" d="M154.212 16.1452C153.695 16.4442 153.288 16.5772 152.892 16.5772C152.516 16.5772 152.115 16.4802 152.115 15.3282V4.91321H148.782V14.1842C148.499 14.7732 147.521 16.3942 145.326 16.3942C143.161 16.3942 142.237 15.3122 142.237 12.7792V4.91321H138.904V13.1732C138.904 17.2042 140.891 19.5162 144.354 19.5162C146.341 19.5162 147.953 18.9102 149.057 17.7542C149.502 18.9242 150.454 19.5162 151.893 19.5162C152.86 19.5162 153.968 19.2542 154.716 18.8492L154.891 18.7552L154.617 15.9102L154.212 16.1452Z" fill="white"/>
<path fill-rule="evenodd" clip-rule="evenodd" d="M183.894 16.1452C183.399 16.4322 182.956 16.5772 182.574 16.5772C182.19 16.5772 181.797 16.4292 181.797 15.3282V11.0452C181.797 6.99821 179.86 4.67621 176.479 4.67621C174.373 4.67621 172.603 5.57121 171.535 7.15321C170.716 5.47021 169.199 4.65021 166.916 4.65021C165.183 4.65021 163.687 5.26821 162.619 6.40621V4.91321H159.286V19.2532H162.619V10.4102C162.838 9.74221 163.674 7.79921 165.944 7.79921C168.388 7.79921 168.901 9.77921 168.901 11.4392V19.2532H172.234V10.3812C172.623 9.12421 173.674 7.79921 175.481 7.79921C178.076 7.79921 178.464 10.0962 178.464 11.4652V15.9322C178.464 18.3102 179.511 19.5162 181.576 19.5162C182.543 19.5162 183.706 19.2412 184.403 18.8472L184.573 18.7502L184.299 15.9102L183.894 16.1452Z" fill="white"/>
<path fill-rule="evenodd" clip-rule="evenodd" d="M199.66 12.07C199.66 14.735 197.965 16.525 195.442 16.525C193.99 16.525 192.738 15.803 192.064 15.151V9.094C192.786 8.389 194.024 7.668 195.442 7.668C197.965 7.668 199.66 9.437 199.66 12.07ZM196.177 4.676C194.603 4.676 193.168 5.134 192.064 5.977V0H188.731V19.254H192.064V18.169C192.915 18.862 194.233 19.516 196.177 19.516C200.236 19.516 203.072 16.454 203.072 12.07C203.072 7.716 200.236 4.676 196.177 4.676Z" fill="white"/>
<mask id="mask1" style="mask-type:alpha" maskUnits="userSpaceOnUse" x="207" y="15" width="5" height="5">
<path fill-rule="evenodd" clip-rule="evenodd" d="M207.696 15.2902H212V19.5682H207.696V15.2902Z" fill="white"/>
</mask>
<g mask="url(#mask1)">
<path fill-rule="evenodd" clip-rule="evenodd" d="M209.835 15.2902C208.495 15.2902 207.696 16.0902 207.696 17.4302C207.696 18.7892 208.475 19.5682 209.835 19.5682C211.211 19.5682 212.001 18.7892 212.001 17.4302C212.001 16.0902 211.191 15.2902 209.835 15.2902Z" fill="white"/>
</g>
</g>
<defs>
<filter id="filter0_d" x="0" y="0" width="216" height="32.4555" filterUnits="userSpaceOnUse" color-interpolation-filters="sRGB">
<feFlood flood-opacity="0" result="BackgroundImageFix"/>
<feColorMatrix in="SourceAlpha" type="matrix" values="0 0 0 0 0 0 0 0 0 0 0 0 0 0 0 0 0 0 127 0" result="hardAlpha"/>
<feOffset dy="4"/>
<feGaussianBlur stdDeviation="2"/>
<feComposite in2="hardAlpha" operator="out"/>
<feColorMatrix type="matrix" values="0 0 0 0 0 0 0 0 0 0 0 0 0 0 0 0 0 0 0.25 0"/>
<feBlend mode="normal" in2="BackgroundImageFix" result="effect1_dropShadow"/>
<feBlend mode="normal" in="SourceGraphic" in2="effect1_dropShadow" result="shape"/>
</filter>
</defs>
</svg>
